<svg height="24" viewBox="0 0 70 24" fill="none" xmlns="http://www.w3.org/2000/svg"><path d="M59.4431 20.3319C56.8399 20.3319 56.3938 17.7622 57.2157 15.2614C57.8665 13.2738 59.4079 11.1839 61.7041 11.1839C64.4113 11.1839 64.6847 13.9246 63.8964 16.3231C63.2104 18.3795 61.6689 20.3319 59.4431 20.3319V20.3319ZM58.6548 23.9968C63.1768 23.9968 67.2191 21.4959 68.8293 16.9739C70.5083 12.2121 68.6231 7.4502 62.4573 7.4502C57.5243 7.4502 53.7554 10.5331 52.3163 14.6106C50.7061 19.2014 52.4538 23.9968 58.6548 23.9968V23.9968ZM43.6496 23.9968C45.431 23.9968 47.2474 23.6194 48.5139 23.0726C48.96 21.8397 48.9936 20.6405 48.6514 19.4412C47.7607 19.7834 46.5279 20.1272 45.2599 20.1272C41.8332 20.1272 41.5262 17.5927 42.2457 15.4341C43.034 13.1395 45.0888 11.2894 48.3444 11.2894C49.2014 11.2894 50.0233 11.4269 50.5366 11.7356C51.4273 10.5363 51.9405 9.33704 52.0445 8.1042C51.2913 7.76201 50.0233 7.4534 48.3795 7.4534C43.0356 7.4534 38.8206 10.5715 37.3144 14.8872C35.8752 18.9647 36.9722 24 43.6528 24L43.6496 23.9968ZM25.253 14.1645C26.1772 12.1081 27.6163 10.9105 29.5016 10.9105C31.1805 10.9105 31.454 11.8347 31.1805 12.5543C30.7696 13.5472 29.3641 14.1645 25.253 14.1645ZM26.7257 23.9968C28.4734 23.9968 30.9391 23.6546 32.9954 22.6264C33.3376 21.4959 33.304 20.3654 32.9267 19.1998C31.6251 19.8506 29.8086 20.2279 28.1648 20.2279C25.7327 20.2279 24.3959 19.4396 24.4311 17.4536C31.0766 17.6247 34.5369 16.4255 35.6674 13.4801C36.7979 10.4995 34.8455 7.4502 30.2195 7.4502C25.2866 7.4502 21.6552 10.9792 20.3184 14.7817C18.9145 18.824 19.8051 23.9968 26.7241 23.9968H26.7257ZM6.86752 23.9968C11.4247 23.9968 14.0167 21.9069 17.0309 15.5012C18.6746 11.9722 20.0802 8.51195 21.6904 5.08686L23.6092 5.70408C24.1225 5.87517 24.3975 5.56656 24.1577 5.08686L21.8279 0.324993C21.6568 -0.0171962 21.2794 -0.0523745 21.0396 0.0515614L15.2496 2.24381C14.7699 2.4149 14.8034 2.86103 15.2831 2.99695L16.9957 3.54541C15.5917 6.73224 13.844 11.5277 12.4385 14.5418C10.8619 17.8998 10.0751 20.2631 7.40319 20.2631C4.73124 20.2631 4.28511 18.1732 5.41562 15.1926C6.71721 11.7324 8.90946 10.7042 11.4103 11.4237C12.0963 10.4643 12.6096 9.02523 12.8143 7.72363C12.0947 7.51736 11.2376 7.4502 10.5197 7.4502C6.47736 7.4502 2.46863 9.54011 0.824847 13.9246C-1.29864 19.5771 0.664946 23.9968 6.86592 23.9968H6.86752Z" fill="#2FD180"></path></svg>